<svg width="77" height="51" viewBox="0 0 77 51" fill="none" xmlns="http://www.w3.org/2000/svg" stroke="currentColor">
<path d="M20.25 36.1741C20.25 38.2646 18.5298 39.9592 16.4079 39.9592C14.286 39.9592 12.5658 38.2646 12.5658 36.1741C12.5658 34.0836 14.286 32.3889 16.4079 32.3889C18.5298 32.3889 20.25 34.0836 20.25 36.1741Z" fill="black"></path>
<path d="M64.4342 36.1741C64.4342 38.2646 62.714 39.9592 60.5921 39.9592C58.4702 39.9592 56.75 38.2646 56.75 36.1741C56.75 34.0836 58.4702 32.3889 60.5921 32.3889C62.714 32.3889 64.4342 34.0836 64.4342 36.1741Z" fill="black"></path>
<path d="M70.9073 21.0333L68.2763 4C51.9474 31.4426 31.9684 32.7674 9.68421 4L6.67735 21.0333M70.9073 21.0333L75 47.5296M70.9073 21.0333C64.864 25.2855 61.3207 24.8938 54.8289 21.0333M6.67735 21.0333L2 47.5296M6.67735 21.0333C15.0818 25.5941 19.4696 25.0559 26.9737 21.0333M25.0526 44.6907L31.3713 47.5958C36.4693 49.9396 42.3688 49.772 47.3256 47.1425L51.9474 44.6907M20.25 36.1741C20.25 38.2646 18.5298 39.9592 16.4079 39.9592C14.286 39.9592 12.5658 38.2646 12.5658 36.1741C12.5658 34.0836 14.286 32.3889 16.4079 32.3889C18.5298 32.3889 20.25 34.0836 20.25 36.1741ZM64.4342 36.1741C64.4342 38.2646 62.714 39.9592 60.5921 39.9592C58.4702 39.9592 56.75 38.2646 56.75 36.1741C56.75 34.0836 58.4702 32.3889 60.5921 32.3889C62.714 32.3889 64.4342 34.0836 64.4342 36.1741Z" stroke="black" stroke-width="2.5"></path>
</svg>
